<?xml version="1.0" encoding="utf-8"?>
<!-- Generator: Adobe Illustrator 27.5.0, SVG Export Plug-In . SVG Version: 6.00 Build 0)  -->
<svg version="1.1" xmlns="http://www.w3.org/2000/svg" xmlns:xlink="http://www.w3.org/1999/xlink" x="0px" y="0px"
	 viewBox="0 0 750 500" style="enable-background:new 0 0 750 500;" xml:space="preserve">
<g id="BACKGROUND">
</g>
<g id="OBJECTS">
	<g>
		<path style="fill:#D4FFFA;" d="M169.799,420.759h407.583c2.24-5.07,4.13-12.966,5.596-25.192
			c8.213-68.476-28.036-75.424-80.47-152.954c-24.085-35.612-40.255-74.008-73.646-93.095
			c-63.602-36.357-138.047,38.671-163.977,52.857c-46.8,25.604-131.16,28.871-120.312,142.06
			C147.072,370.519,154.443,399.136,169.799,420.759z"/>
		<g>
			<g>
				<rect x="316.722" y="333.036" style="fill:#525179;" width="12.992" height="78.483"/>
				<rect x="309.735" y="318.643" style="fill:#844950;" width="26.967" height="19.177"/>
				<rect x="309.735" y="392.231" style="fill:#844950;" width="26.967" height="19.177"/>
				<rect x="295.05" y="404.351" style="fill:#844950;" width="56.336" height="7.057"/>
			</g>
			<rect x="273.681" y="301.943" style="fill:#A8676D;" width="99.075" height="18.477"/>
			<polygon style="fill:#844950;" points="273.681,301.943 246.581,263.652 258.233,254.57 289.304,252.265 321.446,314.333 			"/>
			<g>
				<circle style="fill:#311A51;" cx="295.05" cy="411.408" r="9.351"/>
				<circle style="fill:#FFFFFF;" cx="295.05" cy="411.408" r="4.421"/>
			</g>
			<g>
				<circle style="fill:#311A51;" cx="352.127" cy="411.408" r="9.351"/>
				<circle style="fill:#FFFFFF;" cx="352.127" cy="411.408" r="4.421"/>
			</g>
		</g>
		<polygon style="fill:#323256;" points="449.744,245.312 449.744,270.871 449.744,279.894 449.744,420.759 468.736,420.759 
			468.736,279.894 504.155,279.894 504.155,420.759 523.147,420.759 523.147,279.894 523.147,270.871 523.147,245.312 		"/>
		<g>
			<path style="fill:#261442;" d="M316.807,284.849l17.498-21.197c0,0,93.646,35.061,96.312,43.594s-18.594,74.846-18.594,74.846
				l-17.134-2.856l2.666-56.459L316.807,284.849z"/>
			<path style="fill:#4D2868;" d="M316.695,132.62l-0.531,0.262c-0.596,0.294-1.255,0.31-1.833,0.102
				c-0.577-0.209-1.073-0.643-1.344-1.25l-9.698-21.781c-0.245-0.55-0.261-1.144-0.089-1.674c0.202-0.625,0.665-1.162,1.319-1.438
				l13.856-5.843c0.594-0.251,1.234-0.238,1.788-0.014c0.554,0.224,1.024,0.659,1.277,1.252l9.221,21.58
				c0.213,0.498,0.24,1.03,0.111,1.517c-0.174,0.661-0.635,1.239-1.305,1.54L316.695,132.62z"/>
			<polygon style="fill:#FED12E;" points="306.34,109.657 314.777,129.343 327.274,124.506 318.827,104.033 			"/>
			<path style="fill:#FFAF99;" d="M238.884,182.218c0,0-0.389-12.936,1.667-15.814c2.056-2.878,8.018-6.374,9.252-4.112
				c1.234,2.262-0.822,6.168,1.439,8.635c2.262,2.467,6.99,6.99,6.99,6.99l-7.437,5.551L238.884,182.218z"/>
			<path style="fill:#F2364D;" d="M271.379,199.1l-33.449,21.97l12.866-37.602l-11.911-1.25c0,0-27.052,57.563-17.716,63.732
				c9.295,6.142,47.55-19.717,47.55-19.717l15.831,53.661c0,0,38.447-6.785,49.755-16.242l-16.242-54.073
				c0,0,38.73-22.31,41.198-30.328c2.467-8.018-28.408-44.433-28.408-44.433l-9.5,4.858c0,0,18.773,31.856,18.362,34.118
				c-0.411,2.262-45.296,15.432-45.296,15.432L271.379,199.1z"/>
			<path style="fill:#FED12E;" d="M289.83,205.696c0,0-4.189,5.361-6.533,14.188c0,0-14.937-16.218-11.379-23.05
				c4.659-8.946,16.966-10.942,21.342-9.775s12.719,8.486,14.546,18.236c0,0-7.95-3.914-12.884-1.975L289.83,205.696z"/>
			<path style="fill:#311A51;" d="M278.154,164.156l1.104-8.597c0,0,5.916-7.673,0.733-16.103
				c-5.449-8.863-29.031-6.366-30.17,19.324c0,0-5.828,6.221-1.85,13.921c5.614,10.866,17.295,10.289,21.342,19.916
				c0,0,5.761-3.023,7.958-10.021S278.154,164.156,278.154,164.156z"/>
			<path style="fill:#FFAF99;" d="M279.258,155.559c0,0,16.494,17.871,17.123,23.825c0.629,5.955-5.199,7.927-5.199,7.927
				l2.866,4.577c0,0-0.059,7.671,0.875,11.432l3.362,12.31c0,0-5.515-7.502-8.454-9.934c0,0-10.4-3.924-14.025-8.191l-3.123-7.621
				l-2.916-6.794c0,0-4.922,1.936-7.138-1.407c-2.216-3.343-0.277-5.724,2.007-4.981c0,0-2.682-6.136-5.433-9.216
				C259.202,167.487,275.968,160.959,279.258,155.559z"/>
			<path style="fill:#FFAF99;" d="M321.352,139.676c0,0-9.093-1.895-9.284-4.858s0.573-11.756,2.676-10.992
				c2.103,0.765,1.952,8.794,1.952,8.794l12.774-5.747l1.382,7.945L321.352,139.676z"/>
			<path style="fill:#311A51;" d="M284.549,279.894c0,0,1.009,14.751,13.735,26.285s100.678,33.162,100.678,33.162l48.311,47.941
				l13.688-11.535c0,0-45.418-56.592-51.906-58.755c-6.488-2.163-75.696-30.639-75.696-30.639l0.945-22.702L284.549,279.894z"/>
			<path style="fill:#F2947E;" d="M291.182,187.311c0,0-6.834,3.464-12.438,0c0,0,7.194,8.523,15.406,9.181l-0.102-4.604
				L291.182,187.311z"/>
			<polygon style="fill:#FFAF99;" points="460.962,375.748 473.645,391.529 462.61,401.875 447.274,387.283 			"/>
			<path style="fill:#006EBC;" d="M473.645,391.529l42.64-8.041c0.566-0.107,1.075-0.008,1.492,0.223
				c1.253,0.694,1.683,2.58,0.359,3.689l-38.294,32.097l-17.232-17.623L473.645,391.529z"/>
			<path style="fill:#0081D1;" d="M517.777,383.711c-0.418-0.231-0.927-0.33-1.492-0.223l-3.011,0.568l-37.288,31.498l3.856,3.944
				l38.294-32.097C519.46,386.291,519.029,384.405,517.777,383.711z"/>
			<polygon style="fill:#FFAF99;" points="412.022,382.091 408.212,400.252 393.903,398.439 394.888,379.235 			"/>
			<path style="fill:#006EBC;" d="M408.212,400.252l27.505,21.905c0.763,0.607,0.894,1.524,0.593,2.265
				c-0.301,0.741-1.036,1.306-2.006,1.209l-42.223-4.222l1.822-22.971L408.212,400.252z"/>
			<path style="fill:#0081D1;" d="M392.081,421.41l42.223,4.222c0.97,0.097,1.704-0.468,2.006-1.209
				c0.301-0.741,0.169-1.658-0.593-2.265l-2.366-1.884l-40.831-4.397L392.081,421.41z"/>
		</g>
		<g>
			<rect x="189.966" y="245.312" style="fill:#525179;" width="333.181" height="13.907"/>
			<polygon style="fill:#323256;" points="189.966,245.312 189.966,270.871 189.966,279.894 189.966,420.759 208.958,420.759 
				208.958,279.894 244.377,279.894 244.377,420.759 263.369,420.759 263.369,279.894 263.369,270.871 263.369,245.312 			"/>
		</g>
		<g>
			<path style="fill:#006EBC;" d="M496.532,219.397H380.379c-0.944,0-1.848-0.172-2.683-0.485c-2.887-1.085-4.94-3.872-4.94-7.138
				v-62.875c0-1.42,0.388-2.749,1.064-3.888c1.329-2.236,3.769-3.735,6.559-3.735h116.154c2.105,0,4.011,0.853,5.39,2.233
				s2.233,3.285,2.233,5.39v62.875c0,1.053-0.213,2.055-0.599,2.967C502.399,217.477,499.69,219.397,496.532,219.397z"/>
			<path style="fill:#004B8E;" d="M381.574,211.774v-62.875c0-1.42,0.388-2.749,1.064-3.888c1.329-2.236,3.769-3.735,6.559-3.735
				h-8.819c-2.79,0-5.23,1.499-6.559,3.735c-0.676,1.138-1.065,2.468-1.065,3.888v62.875c0,3.266,2.054,6.052,4.94,7.138
				c0.834,0.314,1.739,0.485,2.683,0.485h8.819c-0.944,0-1.848-0.172-2.683-0.485C383.628,217.826,381.574,215.04,381.574,211.774z"
				/>
			<polygon style="fill:#004B8E;" points="459.24,245.312 459.24,205.219 450.513,196.492 425.364,196.492 434.092,205.219 
				434.092,245.312 			"/>
			<polygon style="fill:#006EBC;" points="467.968,245.312 467.968,205.219 459.24,196.492 434.092,196.492 442.819,205.219 
				442.819,245.312 			"/>
			<polygon style="fill:#0081D1;" points="467.968,205.219 442.819,205.219 434.092,196.492 459.24,196.492 			"/>
			<rect x="419.134" y="238.869" style="fill:#0081D1;" width="65.713" height="6.443"/>
			<rect x="415.869" y="238.869" style="fill:#004B8E;" width="9.157" height="6.443"/>
		</g>
		<g>
			<path style="fill:#7E9934;" d="M343.93,215.63v3.153h-3.004c-3.775,0-6.846,3.071-6.846,6.846c0,5.724,4.308,10.451,9.85,11.133
				v0.788l3.197,7.761h13.502l3.197-7.761V215.63H343.93z M338.316,225.63c0-1.439,1.171-2.61,2.61-2.61h3.004v9.462
				C340.732,231.841,338.316,229.012,338.316,225.63z"/>
			<rect x="339.219" y="242.09" style="fill:#94B748;" width="28.298" height="3.222"/>
		</g>
		<g>
			<g>
				<g>
					<path style="fill:#FFFFFF;" d="M447.724,64.805h-47.89c-5.462,0-9.89,4.428-9.89,9.89v36.995c0,5.462,4.428,9.89,9.89,9.89
						h24.282l20.605,50.938l-9.699-50.938h12.702c5.462,0,9.889-4.428,9.889-9.89V74.694
						C457.614,69.233,453.186,64.805,447.724,64.805z"/>
				</g>
				<g>
					<path style="fill:#525179;" d="M444.722,174.107c-0.633,0-1.225-0.38-1.473-0.993l-20.204-49.945h-23.211
						c-6.329,0-11.478-5.149-11.478-11.479V74.694c0-6.329,5.149-11.478,11.478-11.478h47.89c6.329,0,11.478,5.149,11.478,11.478
						v36.995c0,6.329-5.149,11.479-11.478,11.479h-10.782l9.34,49.052c0.153,0.803-0.328,1.591-1.112,1.821
						C445.021,174.086,444.87,174.107,444.722,174.107z M399.834,66.394c-4.577,0-8.301,3.724-8.301,8.301v36.995
						c0,4.577,3.724,8.301,8.301,8.301h24.282c0.647,0,1.23,0.393,1.473,0.993l14.552,35.975l-6.68-35.082
						c-0.089-0.465,0.035-0.945,0.337-1.311c0.301-0.365,0.75-0.576,1.224-0.576h12.702c4.577,0,8.301-3.724,8.301-8.301V74.694
						c0-4.577-3.724-8.301-8.301-8.301H399.834z"/>
				</g>
			</g>
			<g>
				<g>
					<g>
						<path style="fill:#F2364D;" d="M404.878,107.349c0-1.133,0.275-1.938,0.825-2.416c0.551-0.478,1.238-0.716,2.064-0.716
							c0.809,0,1.492,0.239,2.051,0.716s0.838,1.283,0.838,2.416c0,1.117-0.279,1.93-0.838,2.44s-1.242,0.765-2.051,0.765
							c-0.826,0-1.514-0.255-2.064-0.765C405.153,109.279,404.878,108.466,404.878,107.349z M409.127,100.017h-2.646l-1.117-25.638
							h4.88L409.127,100.017z"/>
						<path style="fill:#F2364D;" d="M418.012,107.349c0-1.133,0.275-1.938,0.825-2.416c0.551-0.478,1.238-0.716,2.064-0.716
							c0.809,0,1.492,0.239,2.051,0.716s0.838,1.283,0.838,2.416c0,1.117-0.279,1.93-0.838,2.44s-1.242,0.765-2.051,0.765
							c-0.826,0-1.514-0.255-2.064-0.765C418.288,109.279,418.012,108.466,418.012,107.349z M422.261,100.017h-2.646l-1.117-25.638
							h4.88L422.261,100.017z"/>
						<path style="fill:#F2364D;" d="M431.146,107.349c0-1.133,0.275-1.938,0.825-2.416c0.551-0.478,1.238-0.716,2.064-0.716
							c0.809,0,1.492,0.239,2.051,0.716s0.838,1.283,0.838,2.416c0,1.117-0.279,1.93-0.838,2.44s-1.242,0.765-2.051,0.765
							c-0.826,0-1.514-0.255-2.064-0.765C431.422,109.279,431.146,108.466,431.146,107.349z M435.395,100.017h-2.646l-1.117-25.638
							h4.88L435.395,100.017z"/>
					</g>
				</g>
			</g>
		</g>
		<g>
			<g>
				<g>
					<circle style="fill:#FFFFFF;" cx="492.465" cy="146.038" r="23.832"/>
				</g>
				<g>
					<path style="fill:#F2364D;" d="M492.466,172.517c-14.601,0-26.48-11.879-26.48-26.48c0-14.601,11.879-26.48,26.48-26.48
						c14.601,0,26.479,11.879,26.479,26.48C518.945,160.639,507.066,172.517,492.466,172.517z M492.466,124.854
						c-11.681,0-21.184,9.503-21.184,21.184c0,11.681,9.504,21.184,21.184,21.184c11.681,0,21.183-9.503,21.183-21.184
						C513.649,134.357,504.146,124.854,492.466,124.854z"/>
				</g>
			</g>
			<g>
				<polyline style="fill:#FFFFFF;" points="492.465,129.784 492.465,146.038 506.498,146.038 				"/>
				<path style="fill:#F2364D;" d="M506.498,147.097h-14.033c-0.585,0-1.059-0.474-1.059-1.059v-16.254
					c0-0.585,0.474-1.059,1.059-1.059c0.585,0,1.059,0.474,1.059,1.059v15.194h12.974c0.585,0,1.059,0.474,1.059,1.059
					S507.083,147.097,506.498,147.097z"/>
			</g>
		</g>
		<g>
			<path style="fill:#323256;" d="M571.073,163.924h-48.251c-2.752,0-4.984,2.231-4.984,4.984v22.278l-25.373,10.834l25.373-2.087
				v1.595c0,2.752,2.231,4.984,4.984,4.984h48.251c2.752,0,4.984-2.231,4.984-4.984v-32.62
				C576.057,166.155,573.825,163.924,571.073,163.924z"/>
			<g>
				<rect x="526.46" y="170.608" style="fill:#DDAE19;" width="41.382" height="29"/>
				<polygon style="fill:#FED12E;" points="567.842,170.608 547.151,185.108 526.46,170.608 				"/>
			</g>
		</g>
		<rect x="159.642" y="419.498" style="fill:#A3B0C6;" width="446.74" height="17.286"/>
		<g>
			<g>
				<g>
					<path style="fill:#7E9934;" d="M541.425,352.678c7.483,7.483,17.388,11.059,27.192,10.746
						c0.313-9.804-3.263-19.709-10.746-27.192s-17.388-11.059-27.192-10.746C530.366,335.29,533.942,345.195,541.425,352.678z"/>
					<path style="fill:#7E9934;" d="M590.991,352.678c-7.483,7.483-17.388,11.059-27.192,10.746
						c-0.313-9.804,3.263-19.709,10.746-27.192c7.483-7.483,17.388-11.059,27.192-10.746
						C602.05,335.29,598.474,345.195,590.991,352.678z"/>
				</g>
				<path style="fill:#94B748;" d="M554.579,334.808c0,10.583,4.475,20.115,11.629,26.826c7.154-6.711,11.629-16.243,11.629-26.826
					s-4.475-20.115-11.629-26.826C559.055,314.693,554.579,324.225,554.579,334.808z"/>
			</g>
			<rect x="545.223" y="361.634" style="fill:#DDAE19;" width="41.97" height="57.864"/>
			<rect x="541.791" y="361.634" style="fill:#FED12E;" width="48.835" height="10.643"/>
		</g>
	</g>
</g>
</svg>
